<svg xmlns="http://www.w3.org/2000/svg" viewBox="0 0 800 560" role="img" aria-labelledby="title desc">
  <title id="title">Leaking sink maintenance photo placeholder</title>
  <desc id="desc">A stylized maintenance photo showing water under a cabinet pipe.</desc>
  <defs>
    <linearGradient id="wall" x1="0" x2="1" y1="0" y2="1">
      <stop offset="0" stop-color="#f8fafc"/>
      <stop offset="1" stop-color="#dfe7dc"/>
    </linearGradient>
    <linearGradient id="water" x1="0" x2="1">
      <stop offset="0" stop-color="#2dd4bf"/>
      <stop offset="1" stop-color="#38bdf8"/>
    </linearGradient>
  </defs>
  <rect width="800" height="560" fill="url(#wall)"/>
  <rect x="90" y="82" width="620" height="88" rx="6" fill="#d8b58c"/>
  <rect x="116" y="160" width="568" height="264" rx="10" fill="#8a6447"/>
  <rect x="146" y="190" width="230" height="204" rx="6" fill="#6f4f38"/>
  <rect x="424" y="190" width="230" height="204" rx="6" fill="#6f4f38"/>
  <path d="M326 166h148v54c0 41-33 74-74 74s-74-33-74-74z" fill="#cbd5e1"/>
  <path d="M364 295h72v96h-72z" fill="#94a3b8"/>
  <path d="M436 350c74 2 93 22 93 58" fill="none" stroke="#64748b" stroke-width="22" stroke-linecap="round"/>
  <path d="M521 421c18 24 18 52 0 84" fill="none" stroke="url(#water)" stroke-width="12" stroke-linecap="round"/>
  <ellipse cx="522" cy="508" rx="118" ry="24" fill="#67e8f9" opacity=".55"/>
  <ellipse cx="487" cy="504" rx="48" ry="10" fill="#14b8a6" opacity=".45"/>
  <circle cx="398" cy="141" r="16" fill="#64748b"/>
  <path d="M252 447h314" stroke="#57402f" stroke-width="18" stroke-linecap="round"/>
  <path d="M128 452h544" stroke="#b77950" stroke-width="20" stroke-linecap="round"/>
</svg>
